<?xml version="1.0" encoding="UTF-8"?>
<!-- Generator: Adobe Illustrator 25.0.0, SVG Export Plug-In . SVG Version: 6.00 Build 0)  -->
<svg version="1.1" id="Ebene_1" xmlns="http://www.w3.org/2000/svg" xmlns:xlink="http://www.w3.org/1999/xlink" x="0px" y="0px" viewBox="0 0 541.6 216.2" style="enable-background:new 0 0 541.6 216.2;" xml:space="preserve">
<style type="text/css">
	.st0{fill:#018488;}
	.st1{fill:#098689;}
</style>
<g>
	<g>
		<path d="M233.5,85.9c4.6,0,6.8,0,11.4,0c7.2,17.9,14.5,35.7,21.8,53.6c-5,0-7.5,0-12.6,0c-1.7-4.5-2.6-6.8-4.3-11.2    c-8.6,0-13,0-21.6,0c-1.8,4.5-2.6,6.8-4.4,11.2c-4.8,0-7.2,0-12.1,0C219,121.6,226.2,103.7,233.5,85.9z M231.8,119    c5.8,0,8.7,0,14.4,0c-0.9-2.4-1.3-3.6-2.2-6c-1.6-4.2-3.5-9.6-4.9-13.6c-0.1,0-0.1,0-0.1,0c-1.4,4.1-3.3,9.4-5,13.9    C233.1,115.6,232.7,116.7,231.8,119z"/>
		<path d="M272.7,143.2c3.7,2.3,7.9,3.7,11.8,3.7c5.5,0,8.9-2.8,8.9-8.2c0-0.8,0-1.2,0-2c-0.1,0-0.1,0-0.1-0.1    c-2.1,1.6-5.5,2.4-8.5,2.4c-8.8,0-16.9-6.8-17-17.8c0-10.6,8.3-19.1,19-19c3.5,0,6.5,0.8,9.1,2.1c3.5-0.6,5.3-0.9,8.8-1.6    c0,12,0,24,0,36c0.3,11.1-9.1,18-19.5,17.8c-4.6-0.1-9.2-1.1-12.4-2.7C272.7,149.6,272.7,147.5,272.7,143.2z M293.4,113.1    c-1.4-0.7-3.5-1.3-5.5-1.3c-5.9,0-8.7,4.3-8.7,9c0,5.3,3.3,9.1,8.5,9.1c2,0,4.1-0.6,5.7-1.6C293.4,122.3,293.4,119.2,293.4,113.1z    "/>
		<path d="M313.4,103.1c4.4,0,6.6,0,11,0c0,1.9,0,2.9,0,4.9c0.1,0,0.1,0,0.1,0.1c2.5-3.6,6.1-5.4,10.6-5.4c0.7,0,1.5,0.1,2.4,0.3    c0,4.2,0,6.3,0,10.6c-0.9-0.2-2-0.4-3-0.4c-3.9,0-7.2,1.2-9.8,4.3c0,8.8,0,13.2,0,22.1c-4.5,0-6.8,0-11.2,0    C313.4,127.3,313.4,115.2,313.4,103.1z"/>
		<path d="M347.9,85.1c3.5,0,6.5,2.9,6.5,6.4s-3,6.4-6.5,6.4s-6.5-2.9-6.5-6.4C341.4,87.9,344.4,85.1,347.9,85.1z M342.3,103.1    c4.5,0,6.8,0,11.2,0c0,12.1,0,24.3,0,36.4c-4.5,0-6.8,0-11.2,0C342.3,127.3,342.3,115.2,342.3,103.1z"/>
		<path d="M361.7,124.4c5.7,3.9,12.9,5.6,17.1,5.6c4.3,0,7.5-1.7,7.5-5.7c0-5-5.1-5.4-11.9-7.6c-7.4-2.4-14.1-6.1-14.1-15.4    c0-10,7.5-16.2,18.8-16.2c5.2,0,11.7,1.3,16.4,3.8c0,4.7,0,7,0,11.6c-5.7-3.6-12.3-5.2-16.4-5.2c-4,0-6.9,1.5-6.9,5    c0,4.7,5,5.1,11.4,7.2c8,2.7,14.5,6.5,14.6,15.9c0.1,10.7-9.6,16.9-19.5,16.7c-5.2-0.1-11.9-1.3-17-3.9    C361.7,131.6,361.7,129.2,361.7,124.4z"/>
		<path d="M413.3,124.2c1.3,5,5.4,7.3,10.6,7.3c4.1,0,8.5-1.4,12.4-4c0,3.8,0,5.6,0,9.4c-3.5,2.2-9.1,3.3-13.8,3.3    c-10.9,0.1-20.7-7.5-20.6-18.9c0-10.7,8.5-19.1,19.1-19.2c10.1-0.1,17.5,8.2,17.4,18.1c0,1.2-0.1,2.9-0.2,3.8    C428.1,124.2,423.2,124.2,413.3,124.2z M427.9,117.1c-0.7-3.9-3.5-6.3-7.2-6.3c-3.5,0-6.5,2.2-7.5,6.3    C419.1,117.1,422,117.1,427.9,117.1z"/>
		<path d="M444.8,103.1c4.4,0,6.7,0,11.1,0c0,1.3,0,2,0,3.3c0.1,0,0.1,0,0.1,0.1c2.8-2.3,6.7-4.2,11.2-4.2c3.9,0,7.3,1.3,9.5,3.7    c2.2,2.3,3.2,5.6,3.2,10.8c0,9.1,0,13.6,0,22.7c-4.5,0-6.8,0-11.2,0c0-8.4,0-12.5,0-20.9c0-2.7-0.4-4.1-1.3-5.1    c-1-1.1-2.3-1.6-3.9-1.6c-2.9,0-5.6,1.5-7.6,3c0,9.8,0,14.7,0,24.5c-4.5,0-6.8,0-11.2,0C444.8,127.3,444.8,115.2,444.8,103.1z"/>
		<path d="M487.4,127.4c5,3,10.9,4.2,14.4,4.2c3.1,0,5-0.8,5-2.8c0-2.8-4.1-2.6-9.5-3.9c-6.9-1.7-11-4.6-11-10.6    c0-7.7,6.9-12.1,15.9-12.1c4.4,0,9.8,0.9,13.9,2.9c0,3.9,0,5.8,0,9.7c-4.8-2.7-10.4-3.9-13.7-3.9c-3,0-4.7,0.9-4.7,2.6    c0,2.7,3.9,2.4,9.3,3.8c6.9,1.7,11.2,4.4,11.2,10.7c0,8-7,12.4-16.4,12.4c-4.4,0-10-0.9-14.4-3    C487.4,133.3,487.4,131.3,487.4,127.4z"/>
	</g>
</g>
<g>
	<path class="st0" d="M348.6,162.2h5.5c3.1,0,5.7,0.5,7.7,1.8c2.6,1.7,4.1,4.7,4.1,8.1c0,3.3-1.3,6.1-3.6,7.8   c-2.1,1.6-4.8,2.2-8.7,2.2h-5.1L348.6,162.2L348.6,162.2z M354,179.1c2.6,0,4.5-0.4,5.9-1.4c1.5-1.1,2.6-3.1,2.6-5.5   c0-2.5-1.1-4.4-2.8-5.6c-1.6-1.1-3.6-1.3-5.8-1.3h-1.9v13.8L354,179.1L354,179.1z"/>
	<path class="st0" d="M370.4,162.2h11.9v3.1h-8.4v5h7.3v3h-7.3v5.8h8.7v3.1h-12.2V162.2z"/>
	<path class="st0" d="M387.1,162.2h3.4l6.5,9.3l6.5-9.3h3.3v20h-3.5v-9.9c0-1.5,0-3,0-4.3l-0.1,0c-0.8,1.3-1.7,2.5-2.6,3.9l-3.8,5.4   l-3.8-5.4c-0.9-1.4-1.8-2.6-2.6-3.9l-0.1,0c0,1.4,0,2.8,0,4.3v9.9h-3.4L387.1,162.2L387.1,162.2z"/>
	<path class="st0" d="M412.3,162.2h3.4l6.5,9.3l6.5-9.3h3.3v20h-3.5v-9.9c0-1.5,0-3,0-4.3l-0.1,0c-0.8,1.3-1.7,2.5-2.6,3.9l-3.8,5.4   l-3.8-5.4c-0.9-1.4-1.8-2.6-2.6-3.9l-0.1,0c0,1.4,0,2.8,0,4.3v9.9h-3.4L412.3,162.2L412.3,162.2z"/>
	<path class="st0" d="M437.6,162.2h3.5v20h-3.5V162.2z"/>
	<path class="st0" d="M446.5,182.2v-20h3.3l7.2,9.6c1.2,1.7,2.4,3.2,3.6,4.8l0.1,0c-0.1-1.9-0.1-3.9-0.1-6.1v-8.4h3.4v20h-3.3   l-7.2-9.6c-1.2-1.7-2.4-3.2-3.6-4.8l0,0c0,1.9,0,3.9,0,6.1v8.4H446.5z"/>
	<path class="st0" d="M475.7,177.6l10.2-15.4h3.2v12.6h3.3v2.8h-3.3v4.6h-3.5v-4.6L475.7,177.6L475.7,177.6z M480.8,174.8   L480.8,174.8l4.8,0.1v-3.5c0-1.3,0-2.8,0.1-3.8l-0.1,0c-0.6,1-1.5,2.4-2.3,3.5L480.8,174.8z"/>
	<path class="st0" d="M497.7,178.2c1.2,0,2.1,1,2.1,2.1s-1,2.1-2.1,2.1s-2.1-1-2.1-2.1S496.5,178.2,497.7,178.2z"/>
	<path class="st0" d="M504.6,164.5c1.2-1.7,3.1-2.6,5.2-2.6s4,0.9,5.2,2.6c1.3,1.7,1.9,4.2,1.9,7.7s-0.6,6-1.9,7.7   c-1.2,1.7-3.1,2.6-5.2,2.6s-4-0.9-5.2-2.6c-1.3-1.7-1.9-4.2-1.9-7.7S503.3,166.2,504.6,164.5z M507.4,178.1   c0.5,0.8,1.4,1.2,2.4,1.2s1.9-0.5,2.4-1.2c0.9-1.2,1.2-3.4,1.2-5.9s-0.3-4.7-1.2-5.9c-0.5-0.8-1.4-1.2-2.4-1.2s-1.9,0.5-2.4,1.2   c-0.9,1.2-1.2,3.4-1.2,5.9S506.5,176.9,507.4,178.1z"/>
</g>
<g>
	<path d="M120.7,80.4c-1.4,3.9-3.7,8.7-4.2,8.8c-0.3,0.1-3.5-14.3-15.3-31c0.3,0.6,11,31.4,10.6,31.7s-13-5.8-13-5.8   c-7.7-3.4-13.6-7.4-18.8-15.6c-10.9-17.2-2.9-42.8-1.2-48.9c0.2-0.6,0.7-1,1.4-1c4.9,0.3,27.5,8.1,37.2,22.2   C126.6,54.3,125.2,68.2,120.7,80.4z"/>
	<path class="st1" d="M158.4,111.2l-36-15.9c-1.3-0.6-1.3-2.4-0.1-3.1l47.3-23c0.4-0.2,1-0.2,1.4,0l36,16c1.3,0.6,1.3,2.4,0.1,3.1   l-47.3,23C159.4,111.3,158.8,111.4,158.4,111.2z"/>
	<path class="st0" d="M100.8,139l-36-15.9c-1.3-0.6-1.3-2.4-0.1-3.1L112,97c0.4-0.2,1-0.2,1.4,0l36,15.9c1.3,0.6,1.3,2.4,0.1,3.1   l-47.3,23C101.8,139.2,101.2,139.2,100.8,139z"/>
	<path class="st0" d="M54.2,118.2l-36-15.9c-1.3-0.6-1.3-2.4,0-3.1l47.3-23c0.4-0.2,1-0.2,1.4,0l36,15.9c1.3,0.6,1.3,2.4,0.1,3.1   l-47.3,23C55.1,118.4,54.6,118.4,54.2,118.2z"/>
</g>
</svg>